<?xml version="1.0" encoding="UTF-8"?>
<svg version="1.1" xmlns="http://www.w3.org/2000/svg" width="500" height="500">
<path d="M0 0 C82.17 0 164.34 0 249 0 C249 32.34 249 64.68 249 98 C230.85 98 212.7 98 194 98 C194 129.35 194 160.7 194 193 C202.50910156 192.95359375 211.01820313 192.9071875 219.78515625 192.859375 C225.86213007 192.83633695 231.93907107 192.81583218 238.01606083 192.79898453 C245.88735169 192.77682512 253.75847287 192.74869925 261.62963867 192.69824219 C267.86191331 192.65831015 274.09405986 192.63255203 280.32645887 192.62364602 C283.62501324 192.61844189 286.92311688 192.60414103 290.22157478 192.57707977 C293.90843538 192.54803547 297.59453751 192.54404462 301.28149414 192.54589844 C302.36906509 192.53151733 303.45663605 192.51713623 304.5771637 192.50231934 C310.94675775 192.53696566 314.83580361 193.17447744 320 197 C324.60732809 202.78869426 324.64467081 207.78010736 324 215 C322.89836393 220.9423604 321.4229208 226.77448776 319.93261719 232.62939453 C319.49467794 234.3895212 319.05785436 236.14992577 318.62205505 237.9105835 C317.44155654 242.66548092 316.24497759 247.41619318 315.04491711 252.16618586 C313.78789896 257.15133775 312.54434361 262.13984838 311.29888916 267.12789917 C309.20609614 275.50078031 307.10308262 283.87104199 304.99365234 292.23974609 C302.55889776 301.89952157 300.13909664 311.56294588 297.72755885 321.22854149 C295.40207259 330.54821226 293.06721712 339.86550972 290.72769928 349.18166733 C289.73454592 353.13686909 288.74442786 357.09281205 287.75673676 361.04938126 C286.59228224 365.71186309 285.41953808 370.37218475 284.24049568 375.03099823 C283.81039486 376.73582378 283.38304061 378.44134509 282.95871544 380.14761734 C277.71541107 401.21313074 277.71541107 401.21313074 272.625 406.4375 C266.09556953 410.32406576 260.04966733 410.28475672 252.6577301 410.25396729 C251.5100643 410.25708727 250.3623985 410.26020725 249.17995495 410.26342177 C246.00313074 410.27001072 242.82645982 410.26765016 239.64963949 410.26144934 C236.22012293 410.25692074 232.79062696 410.26391067 229.3611145 410.26940918 C222.64586604 410.27830074 215.9306623 410.27638214 209.21541209 410.2705839 C203.75699175 410.26606611 198.29858395 410.26545501 192.84016228 410.26763153 C191.67459851 410.26809123 191.67459851 410.26809123 190.48548801 410.26856022 C188.90690033 410.26919967 187.32831265 410.2698481 185.74972498 410.2705054 C170.94814858 410.2762081 156.14659697 410.26965194 141.34502464 410.25890467 C128.6482169 410.24997097 115.95144574 410.25151981 103.25463867 410.26074219 C88.50737227 410.27144892 73.7601276 410.27565692 59.01285785 410.26951766 C57.43978974 410.26888057 55.86672161 410.26825183 54.29365349 410.26763153 C53.13271338 410.2671687 53.13271338 410.2671687 51.94831993 410.26669653 C46.49779903 410.26497067 41.04729191 410.26788239 35.59677315 410.27259064 C28.95240426 410.27820402 22.30808261 410.27667347 15.66371913 410.26602915 C12.27449449 410.26077829 8.88541371 410.25978493 5.49617958 410.26532745 C1.8204588 410.27078463 -1.85503986 410.2639463 -5.53074646 410.25396729 C-6.59962032 410.25842873 -7.66849419 410.26289017 -8.76975816 410.26748681 C-21.39144561 410.2009311 -21.39144561 410.2009311 -25.6670444 406.59345472 C-29.56613178 402.4490341 -31.2546548 398.39477987 -32.52970886 392.92550659 C-32.72815972 392.1482283 -32.92661057 391.37095001 -33.13107508 390.57011783 C-33.55395069 388.90482496 -33.96807588 387.2372891 -34.37406898 385.56780005 C-34.99620916 383.0155514 -35.64415309 380.47127299 -36.30047035 377.92761612 C-37.73393086 372.3553388 -39.12993655 366.77397186 -40.5246582 361.19189453 C-41.05722396 359.0676315 -41.58998001 356.94341618 -42.12290955 354.81924438 C-43.55458311 349.11004516 -44.98328117 343.40010559 -46.41114068 337.68995142 C-47.30430599 334.11871916 -48.19814267 330.54765563 -49.09221458 326.97665024 C-52.21333993 314.51057833 -55.33206906 302.04390986 -58.44848633 289.57666016 C-61.35205244 277.96118892 -64.26089351 266.34705049 -67.1721471 254.73350441 C-69.67663978 244.74164226 -72.17752349 234.74888142 -74.6755721 224.75540626 C-76.16561061 218.79474199 -77.65711304 212.83445339 -79.15224648 206.87506485 C-80.55424617 201.28636237 -81.95176446 195.6965586 -83.34578896 190.10586166 C-83.85855074 188.05271622 -84.37292916 185.99997376 -84.88901901 183.94766235 C-85.59155492 181.15286772 -86.2883135 178.35669538 -86.9835968 175.56008911 C-87.19029741 174.7435738 -87.39699802 173.92705849 -87.60996228 173.08580029 C-88.47317073 169.59005522 -89 166.62401245 -89 163 C-90.62627319 163.02356567 -90.62627319 163.02356567 -92.28540039 163.04760742 C-96.33138517 163.10215907 -100.37733782 163.13644133 -104.42358398 163.16479492 C-106.1703845 163.17982429 -107.91714765 163.20025354 -109.66381836 163.22631836 C-112.18352515 163.2629608 -114.70273039 163.27978492 -117.22265625 163.29296875 C-118.3824575 163.31619453 -118.3824575 163.31619453 -119.56568909 163.33988953 C-125.33185294 163.34165459 -130.26184671 162.41276736 -134.7421875 158.46484375 C-139.19813425 152.45699831 -139.72621892 148.44111274 -139 141 C-136.86105726 136.09825623 -134.08830846 134.06829772 -129.44018555 131.8359375 C-124.7042643 130.21354687 -119.86390749 130.4320212 -114.90625 130.46875 C-113.76015259 130.4649231 -112.61405518 130.46109619 -111.43322754 130.45715332 C-109.01944089 130.45444148 -106.60562449 130.46175137 -104.19189453 130.47851562 C-100.51137352 130.49993381 -96.83280453 130.47868717 -93.15234375 130.453125 C-90.79947489 130.4557684 -88.44660723 130.46089364 -86.09375 130.46875 C-85.00082642 130.46065308 -83.90790283 130.45255615 -82.78186035 130.44421387 C-76.39910878 130.52199472 -71.19255364 131.04047361 -66 135 C-61.60777313 139.87561306 -60.48075613 145.71807637 -58.984375 151.9453125 C-58.59333588 153.51646317 -58.59333588 153.51646317 -58.19439697 155.11935425 C-57.64781369 157.32510983 -57.1068855 159.53227355 -56.57128906 161.74072266 C-55.75038944 165.12339524 -54.91188484 168.50132392 -54.0703125 171.87890625 C-53.54063317 174.02578694 -53.01195272 176.17291439 -52.484375 178.3203125 C-52.1094693 179.83602341 -52.1094693 179.83602341 -51.72698975 181.38235474 C-51.49965149 182.32368256 -51.27231323 183.26501038 -51.03808594 184.23486328 C-50.83697205 185.06059845 -50.63585815 185.88633362 -50.4286499 186.73709106 C-50 189 -50 189 -50 193 C-15.35 193 19.3 193 55 193 C55 161.65 55 130.3 55 98 C36.85 98 18.7 98 0 98 C0 65.66 0 33.32 0 0 Z M-42 224 C-37.05 244.13 -32.1 264.26 -27 285 C-18.09 285 -9.18 285 0 285 C0 276.75 0 268.5 0 260 C4.95 260 9.9 260 15 260 C15 248.12 15 236.24 15 224 C-3.81 224 -22.62 224 -42 224 Z M47 224 C47 235.88 47 247.76 47 260 C49.64 260 52.28 260 55 260 C55 248.12 55 236.24 55 224 C52.36 224 49.72 224 47 224 Z M194 224 C194 235.88 194 247.76 194 260 C195.98 260 197.96 260 200 260 C200 248.12 200 236.24 200 224 C198.02 224 196.04 224 194 224 Z M232 224 C232 235.88 232 247.76 232 260 C237.61 260 243.22 260 249 260 C249 268.25 249 276.5 249 285 C256.92 285 264.84 285 273 285 C275.41265218 277.84519729 275.41265218 277.84519729 277.44213867 270.63549805 C277.6821611 269.6880925 277.92218353 268.74068695 278.16947937 267.76457214 C278.41648087 266.77363052 278.66348236 265.7826889 278.91796875 264.76171875 C279.18007645 263.71852982 279.44218414 262.67534088 279.7122345 261.60054016 C280.2610183 259.41178984 280.80800486 257.22258817 281.35327148 255.03295898 C282.18971477 251.67861825 283.03496681 248.32657807 283.88085938 244.97460938 C284.41459468 242.84127891 284.94781601 240.70781977 285.48046875 238.57421875 C285.73354294 237.57315598 285.98661713 236.5720932 286.24736023 235.54069519 C286.59320915 234.14322807 286.59320915 234.14322807 286.94604492 232.7175293 C287.25224007 231.49249947 287.25224007 231.49249947 287.56462097 230.24272156 C288.127048 227.72631631 288.127048 227.72631631 288 224 C269.52 224 251.04 224 232 224 Z M-18 317 C-17.39611238 321.83110095 -16.86454109 326.04269388 -15.70898438 330.66577148 C-15.45201782 331.70301865 -15.19505127 332.74026581 -14.93029785 333.8089447 C-14.65423706 334.90195389 -14.37817627 335.99496307 -14.09375 337.12109375 C-13.80898804 338.26159683 -13.52422607 339.40209991 -13.23083496 340.5771637 C-12.6312611 342.97380599 -12.02937131 345.36986996 -11.42529297 347.76538086 C-10.49731228 351.44816651 -9.57822579 355.13309197 -8.66015625 358.81835938 C-8.0760458 361.14856915 -7.49142842 363.47865194 -6.90625 365.80859375 C-6.63018921 366.91577255 -6.35412842 368.02295135 -6.06970215 369.16368103 C-5.8127356 370.17886307 -5.55576904 371.1940451 -5.29101562 372.23999023 C-5.06530884 373.1374144 -4.83960205 374.03483856 -4.60705566 374.9594574 C-4.18368684 376.97502038 -4.18368684 376.97502038 -3 378 C-1.65732587 378.08631874 -0.31025678 378.10706473 1.03515625 378.09765625 C1.76355713 378.09515869 2.49195801 378.09266113 3.24243164 378.09008789 C4.1730542 378.08098389 5.10367676 378.07187988 6.0625 378.0625 C9.011875 378.041875 11.96125 378.02125 15 378 C15 371.4 15 364.8 15 358 C10.05 358 5.1 358 0 358 C0 344.47 0 330.94 0 317 C-5.94 317 -11.88 317 -18 317 Z M249 317 C249 330.53 249 344.06 249 358 C243.39 358 237.78 358 232 358 C232 364.6 232 371.2 232 378 C237.94 378 243.88 378 250 378 C253.39747687 365.9466091 256.61959695 353.86775594 259.6496582 341.71704102 C260.32525327 339.01142584 261.00722515 336.30746502 261.68945312 333.60351562 C262.12277597 331.87249095 262.55573321 330.1413747 262.98828125 328.41015625 C263.19133377 327.60715591 263.39438629 326.80415558 263.60359192 325.9768219 C264.3632331 322.91255137 265 320.17004621 265 317 C259.72 317 254.44 317 249 317 Z M47 358 C47 364.6 47 371.2 47 378 C67.13 378 87.26 378 108 378 C108 371.4 108 364.8 108 358 C87.87 358 67.74 358 47 358 Z M139 358 C139 364.6 139 371.2 139 378 C159.13 378 179.26 378 200 378 C200 371.4 200 364.8 200 358 C179.87 358 159.74 358 139 358 Z " fill="#030303" transform="translate(142,0)"/>
<path d="M0 0 C72.93 0 145.86 0 221 0 C221 23.1 221 46.2 221 70 C197.3125 70.25 197.3125 70.25 189.85668945 70.29785156 C187.90052946 70.32722357 185.94439052 70.35804977 183.98828125 70.390625 C182.97745483 70.39175293 181.96662842 70.39288086 180.9251709 70.39404297 C176.54861462 70.48310554 173.76830469 70.55130663 169.93823242 72.78808594 C166.98776011 76.15516984 165.75531349 78.79507669 165.7215271 83.27740479 C165.71037558 84.12256779 165.69922405 84.96773079 165.6877346 85.83850479 C165.68556246 86.7609486 165.68339031 87.68339241 165.68115234 88.63378906 C165.67099909 89.62548977 165.66084583 90.61719048 165.6503849 91.63894272 C165.61975846 94.84783313 165.60259505 98.05663483 165.5859375 101.265625 C165.56900321 103.24724086 165.55118661 105.22884938 165.5324707 107.21044922 C165.46928107 114.55688191 165.42317932 121.90345354 165.375 129.25 C165.25125 145.6675 165.1275 162.085 165 179 C129.03 179 93.06 179 56 179 C55.75 129.9375 55.75 129.9375 55.70214844 114.46850586 C55.66891225 109.8768174 55.66891225 109.8768174 55.63043213 105.28517151 C55.61585593 103.24635141 55.60904809 101.20746648 55.60845947 99.16859436 C55.60603685 96.07282059 55.57865971 92.97815037 55.54589844 89.88256836 C55.55092251 88.98028724 55.55594658 88.07800611 55.56112289 87.14838314 C55.4643209 81.29496251 54.50133819 77.75192977 51 73 C48.14416654 70.92601357 45.71180799 70.73728723 42.23144531 70.68115234 C41.2777002 70.66109131 40.32395508 70.64103027 39.34130859 70.62036133 C38.34695801 70.60900146 37.35260742 70.5976416 36.328125 70.5859375 C34.94826416 70.55947144 34.94826416 70.55947144 33.54052734 70.5324707 C30.11052803 70.46949607 26.68023811 70.42324558 23.25 70.375 C15.5775 70.25125 7.905 70.1275 0 70 C0 46.9 0 23.8 0 0 Z " fill="#FD5E05" transform="translate(156,14)"/>
<path d="M0 0 C82.17 0 164.34 0 249 0 C249 32.34 249 64.68 249 98 C230.85 98 212.7 98 194 98 C194 129.35 194 160.7 194 193 C189.05 193 184.1 193 179 193 C178.9073068 180.06530523 178.83623816 167.13068952 178.79275131 154.19573021 C178.77187945 148.18944947 178.74356854 142.18339602 178.69824219 136.17724609 C178.65477102 130.38062939 178.63085987 124.58423128 178.62049103 118.78746414 C178.61310202 116.5762653 178.59867304 114.36507838 178.57707977 112.15397263 C178.5480296 109.055999 178.54404477 105.95892783 178.54589844 102.86083984 C178.53151733 101.94733765 178.51713623 101.03383545 178.50231934 100.09265137 C178.53809588 94.56438892 179.24847575 91.34183869 183 87 C185.9367757 84.20282407 187.83921638 83.62767802 191.86035156 83.65942383 C192.83439941 83.65978638 193.80844727 83.66014893 194.81201172 83.66052246 C195.8279541 83.67587036 196.84389648 83.69121826 197.890625 83.70703125 C199.29997314 83.71156311 199.29997314 83.71156311 200.73779297 83.71618652 C204.24197398 83.73186297 207.74599821 83.77374701 211.25 83.8125 C223.00625 83.9053125 223.00625 83.9053125 235 84 C235 60.9 235 37.8 235 14 C162.07 14 89.14 14 14 14 C14 37.1 14 60.2 14 84 C29.19779727 83.8419486 29.19779727 83.8419486 44.39501953 83.63964844 C46.30760809 83.62796031 48.22020664 83.61776878 50.1328125 83.609375 C51.11693115 83.58891113 52.1010498 83.56844727 53.11499023 83.54736328 C58.88351831 83.54443881 62.59444055 83.87144964 67 88 C70.39192779 93.26028401 70.41269386 97.72358091 70.34057617 103.76904297 C70.34123329 105.21876244 70.34123329 105.21876244 70.34190369 106.69776917 C70.33982041 109.87945032 70.31651074 113.06059885 70.29296875 116.2421875 C70.28737117 118.45321362 70.28310183 120.66424348 70.28010559 122.87527466 C70.26866967 128.68516371 70.23921303 134.49482657 70.20599365 140.30462646 C70.1752659 146.23690735 70.16159446 152.16922491 70.14648438 158.1015625 C70.11434233 169.73447419 70.06316093 181.36721826 70 193 C65.05 193 60.1 193 55 193 C55 161.65 55 130.3 55 98 C36.85 98 18.7 98 0 98 C0 65.66 0 33.32 0 0 Z " fill="#1D2E4F" transform="translate(142,0)"/>
<path d="M0 0 C1.2684375 0.99 1.2684375 0.99 2.5625 2 C3.5525 2.721875 4.5425 3.44375 5.5625 4.1875 C13.99477204 11.42777547 18.41626416 22.16550941 19.4375 33 C19.98313298 45.95528563 16.16145778 56.81906907 7.8125 66.875 C3.61004823 71.29357786 -0.98710492 74.31354934 -6.4375 77 C-7.09878906 77.3403125 -7.76007813 77.680625 -8.44140625 78.03125 C-17.49448033 81.85798973 -30.30419815 81.47485422 -39.5 78.375 C-51.48651541 73.1148625 -60.43438239 65.0451573 -65.46875 52.81640625 C-69.4008486 41.38478088 -69.32231371 30.00018243 -64.78515625 18.73046875 C-58.5523488 6.10225887 -49.16513732 -1.44850725 -35.9921875 -6.11328125 C-22.98966369 -9.35676796 -11.48688951 -6.68328117 0 0 Z M-39.70703125 21.17578125 C-44.00407845 25.70562559 -45.63471895 30.90279805 -45.9375 37.0625 C-45.60812885 43.91554488 -43.0884265 48.76140007 -38.0625 53.375 C-32.67866012 57.58148211 -27.22145886 58.77932484 -20.4375 58 C-13.49233662 56.65877342 -9.34752191 52.76992423 -5.4375 47 C-2.63393582 41.19662216 -2.37266827 34.93583373 -4.0546875 28.71875 C-6.7315496 22.55959826 -11.4548116 18.59589996 -17.640625 16.1171875 C-25.92006844 13.83020837 -33.13051073 15.75441803 -39.70703125 21.17578125 Z " fill="#090909" transform="translate(393.4375,420)"/>
<path d="M0 0 C8.99357706 6.47339888 15.57597783 15.99963066 17.83984375 26.9453125 C19.47525666 39.80458664 17.34505825 51.72472522 9.6328125 62.32421875 C7.61621256 64.81623474 5.5112555 67.04598865 3.125 69.1875 C2.073125 70.1775 2.073125 70.1775 1 71.1875 C-9.84902819 78.73465004 -20.9820493 80.31691661 -33.875 79.1875 C-40.57830074 77.77357973 -46.45762016 75.44401273 -51.875 71.1875 C-53.36 70.1046875 -53.36 70.1046875 -54.875 69 C-61.80715454 63.06593054 -67.21772497 53.16180061 -68.875 44.1875 C-69.77950116 30.05652292 -68.18809504 18.46758494 -58.875 7.1875 C-42.63585298 -10.50157086 -19.99379713 -12.32725668 0 0 Z M-40.875 20.1875 C-45.20649791 25.62705552 -47.35141579 30.87078514 -47.20703125 37.90625 C-46.39100858 43.51280576 -43.93001082 48.40601076 -39.64453125 52.12109375 C-33.47047166 56.32106577 -28.34758664 58.05950363 -20.875 57.1875 C-14.36874916 55.05354251 -9.74513341 51.19307155 -6.125 45.375 C-3.49757229 38.67505934 -3.36743978 33.35603219 -5.6796875 26.5859375 C-8.26338365 21.4016583 -12.26416803 18.2408616 -17.5859375 16.09375 C-25.88774375 13.52470967 -33.96604221 14.43844024 -40.875 20.1875 Z " fill="#090909" transform="translate(184.875,420.8125)"/>
<path d="M0 0 C13.2 0 26.4 0 40 0 C40.02578125 2.89007813 40.0515625 5.78015625 40.078125 8.7578125 C40.11657656 11.56780591 40.16172676 14.37761776 40.20751953 17.1875 C40.23568321 19.13500245 40.2569206 21.08261822 40.27099609 23.03027344 C40.29248946 25.83587468 40.33917198 28.64012 40.390625 31.4453125 C40.39185364 32.31116974 40.39308228 33.17702698 40.39434814 34.06912231 C40.54817798 40.46924487 42.21509986 44.20914921 46.828125 48.83203125 C49.8146771 50.43810873 52.37954016 50.51897701 55.75 50.6875 C56.92046875 50.75324219 58.0909375 50.81898438 59.296875 50.88671875 C60.18890625 50.92410156 61.0809375 50.96148437 62 51 C62 54.63 62 58.26 62 62 C41.54 62 21.08 62 0 62 C0 41.54 0 21.08 0 0 Z " fill="#FC5E04" transform="translate(281,224)"/>
<path d="M0 0 C12.54 0 25.08 0 38 0 C38 20.46 38 40.92 38 62 C17.54 62 -2.92 62 -24 62 C-24 58.37 -24 54.74 -24 51 C-23.05898437 50.97421875 -22.11796875 50.9484375 -21.1484375 50.921875 C-11.69063309 50.73892949 -11.69063309 50.73892949 -4 46 C-0.38507673 41.4054079 -0.52937937 37.14510628 -0.48828125 31.54296875 C-0.47033005 30.64000565 -0.45237885 29.73704254 -0.43388367 28.80671692 C-0.37986979 25.93369156 -0.34591363 23.06083149 -0.3125 20.1875 C-0.27931904 18.23500309 -0.24482866 16.28252796 -0.20898438 14.33007812 C-0.12169208 9.5533628 -0.06154794 4.77739353 0 0 Z " fill="#FD5E04" transform="translate(212,224)"/>
<path d="M0 0 C20.46 0 40.92 0 62 0 C62 8.91 62 17.82 62 27 C41.54 27 21.08 27 0 27 C0 18.09 0 9.18 0 0 Z " fill="#FB5D05" transform="translate(281,317)"/>
<path d="M0 0 C20.46 0 40.92 0 62 0 C62 8.91 62 17.82 62 27 C41.54 27 21.08 27 0 27 C0 18.09 0 9.18 0 0 Z " fill="#FB5E05" transform="translate(188,317)"/>
<path d="M0 0 C20.46 0 40.92 0 62 0 C62 11.55 62 23.1 62 35 C41.54 35 21.08 35 0 35 C0 34.67 0 34.34 0 34 C20.13 34 40.26 34 61 34 C61 27.4 61 20.8 61 14 C40.87 14 20.74 14 0 14 C0 9.38 0 4.76 0 0 Z " fill="#1D2E4E" transform="translate(281,344)"/>
<path d="M0 0 C20.46 0 40.92 0 62 0 C62 4.62 62 9.24 62 14 C41.87 14 21.74 14 1 14 C1 20.6 1 27.2 1 34 C21.13 34 41.26 34 62 34 C62 34.33 62 34.66 62 35 C41.54 35 21.08 35 0 35 C0 23.45 0 11.9 0 0 Z " fill="#1E2F4F" transform="translate(188,344)"/>
<path d="M0 0 C0.33 0 0.66 0 1 0 C1 11.88 1 23.76 1 36 C3.64 36 6.28 36 9 36 C9 24.12 9 12.24 9 0 C13.95 0 18.9 0 24 0 C24.09913284 5.72911572 24.1715934 11.45772839 24.21972656 17.1875 C24.23979906 19.13517966 24.26706332 21.08279937 24.30175781 23.03027344 C24.35046852 25.83543721 24.37301241 28.63980187 24.390625 31.4453125 C24.41127014 32.31116974 24.43191528 33.17702698 24.45318604 34.06912231 C24.45520972 39.56431013 23.63958673 42.6283125 20 47 C17.625 49.375 17.625 49.375 14 51 C9.38 51 4.76 51 0 51 C0 34.17 0 17.34 0 0 Z " fill="#263452" transform="translate(188,224)"/>
<path d="M0 0 C4.95 0 9.9 0 15 0 C15 11.88 15 23.76 15 36 C16.98 36 18.96 36 21 36 C21 24.12 21 12.24 21 0 C21.33 0 21.66 0 22 0 C22 16.83 22 33.66 22 51 C9 51 9 51 4.8125 48.25 C2.14869733 45.57945352 0.20914647 42.77184025 -0.24050903 38.96246338 C-0.23606781 38.24298523 -0.23162659 37.52350708 -0.22705078 36.78222656 C-0.22689972 35.96167786 -0.22674866 35.14112915 -0.22659302 34.29571533 C-0.21627045 33.41953552 -0.20594788 32.54335571 -0.1953125 31.640625 C-0.1924826 30.73624695 -0.18965271 29.8318689 -0.18673706 28.90008545 C-0.17555782 26.01658805 -0.15045733 23.13340325 -0.125 20.25 C-0.11496728 18.29297324 -0.10584194 16.33594161 -0.09765625 14.37890625 C-0.07562585 9.58581738 -0.04111144 4.79296166 0 0 Z " fill="#243352" transform="translate(321,224)"/>
<path d="M0 0 C5.94 0 11.88 0 18 0 C18 13.53 18 27.06 18 41 C12.39 41 6.78 41 1 41 C1 47.6 1 54.2 1 61 C6.94 61 12.88 61 19 61 C19 61.33 19 61.66 19 62 C12.73 62 6.46 62 0 62 C0 41.54 0 21.08 0 0 Z " fill="#223352" transform="translate(373,317)"/>
<path d="M0 0 C4.62 0 9.24 0 14 0 C15.14806378 28.41457859 15.14806378 28.41457859 15 41 C10.05 41 5.1 41 0 41 C0 27.47 0 13.94 0 0 Z " fill="#152749" transform="translate(142,317)"/>
<path d="M0 0 C0.33 0 0.66 0 1 0 C1 11.88 1 23.76 1 36 C6.61 36 12.22 36 18 36 C18 44.25 18 52.5 18 61 C30.375 60.505 30.375 60.505 43 60 C43 60.66 43 61.32 43 62 C28.81 62 14.62 62 0 62 C0 41.54 0 21.08 0 0 Z " fill="#32415D" transform="translate(373,224)"/>
<path d="M0 0 C0.33 0 0.66 0 1 0 C1.22018142 20.81053203 1.03545804 41.26377119 -1 62 C-14.53 62 -28.06 62 -42 62 C-42 61.67 -42 61.34 -42 61 C-33.09 61 -24.18 61 -15 61 C-15 52.75 -15 44.5 -15 36 C-10.05 36 -5.1 36 0 36 C0 24.12 0 12.24 0 0 Z " fill="#2A3956" transform="translate(157,224)"/>
<path d="M0 0 C1.32 0 2.64 0 4 0 C4 8.91 4 17.82 4 27 C2.68 27 1.36 27 0 27 C0 18.09 0 9.18 0 0 Z " fill="#C64D0B" transform="translate(373,317)"/>
<path d="M0 0 C1.32 0 2.64 0 4 0 C4 3.63 4 7.26 4 11 C2.68 11 1.36 11 0 11 C0 7.37 0 3.74 0 0 Z " fill="#C34C0A" transform="translate(373,275)"/>
</svg>
